<?xml version="1.0" standalone="no"?>
<!DOCTYPE svg PUBLIC "-//W3C//DTD SVG 20010904//EN"
 "http://www.w3.org/TR/2001/REC-SVG-20010904/DTD/svg10.dtd">
<svg version="1.0" xmlns="http://www.w3.org/2000/svg"
 width="120.000000pt" height="120.000000pt" viewBox="0 0 120.000000 120.000000"
 preserveAspectRatio="xMidYMid meet">
<metadata>
Created by potrace 1.11, written by Peter Selinger 2001-2013
</metadata>
<g transform="translate(0.000000,120.000000) scale(0.100000,-0.100000)"
fill="#000000" stroke="none">
<path d="M168 1145 l-25 -24 -6 -436 c-4 -239 -4 -441 -1 -448 3 -8 49 -24
107 -37 56 -12 129 -31 162 -40 59 -18 225 -64 418 -115 53 -14 102 -23 107
-20 6 3 10 15 10 25 0 20 82 84 93 73 4 -3 13 0 22 7 13 11 15 72 13 466 -1
360 -4 457 -14 465 -8 6 -29 12 -48 14 -20 2 -43 6 -53 9 -10 3 -54 8 -98 11
-44 3 -102 10 -130 15 -74 15 -195 19 -195 7 0 -6 -6 -3 -12 6 -9 11 -35 18
-83 22 -38 3 -88 10 -110 15 -75 18 -130 13 -157 -15z m508 -81 c104 -14 218
-32 254 -39 35 -7 68 -11 72 -9 4 3 4 -5 -1 -18 -5 -13 -16 -22 -24 -22 -10 1
-13 -4 -9 -14 4 -11 1 -14 -11 -9 -11 4 -14 2 -10 -9 5 -13 -2 -16 -24 -13 -5
1 -7 6 -5 11 2 7 -9 8 -28 5 -16 -4 -30 -3 -30 1 0 9 -110 35 -118 28 -3 -3
-10 -2 -16 3 -11 9 -198 55 -290 72 -27 4 -51 11 -55 15 -3 4 4 5 16 2 16 -4
20 -2 16 8 -8 21 45 18 263 -12z m-212 -49 c-6 -16 -24 -21 -24 -7 0 11 11 22
21 22 5 0 6 -7 3 -15z m-124 -25 c0 -5 -4 -10 -10 -10 -5 0 -10 5 -10 10 0 6
5 10 10 10 6 0 10 -4 10 -10z m167 -45 c2 -11 0 -14 -3 -7 -9 20 -36 15 -29
-7 6 -21 -19 -49 -30 -31 -3 5 -2 10 4 10 6 0 8 12 5 28 -5 25 -3 28 23 27 20
0 28 -5 30 -20z m-117 5 c0 -5 -2 -10 -4 -10 -3 0 -8 5 -11 10 -3 6 -1 10 4
10 6 0 11 -4 11 -10z m226 -34 c-1 -30 -36 -44 -36 -15 0 10 7 19 15 19 8 0
15 5 15 10 0 6 2 10 4 10 2 0 3 -11 2 -24z m-288 -38 c-21 -7 -28 -17 -29 -36
-1 -17 -3 -21 -6 -9 -2 9 -9 17 -14 17 -5 0 -1 9 8 20 10 11 29 20 43 19 l25
-1 -27 -10z m172 -29 c0 -11 -3 -11 -24 -3 -23 9 -20 23 4 17 11 -3 20 -9 20
-14z m82 -2 c10 -3 19 0 22 9 3 8 10 14 15 14 5 0 3 -12 -5 -27 -18 -36 -18
-43 2 -43 8 0 13 4 9 9 -8 14 16 26 47 22 18 -1 28 2 28 11 0 9 3 9 8 2 4 -6
14 -15 23 -20 12 -6 14 -15 8 -29 -6 -15 -8 -16 -8 -4 -1 19 -59 35 -74 20
-13 -13 1 -51 19 -51 16 0 36 -42 24 -50 -4 -3 -6 -34 -5 -68 1 -38 -1 -58 -6
-50 -7 10 -12 10 -27 1 -20 -12 -66 -9 -108 7 -15 6 -24 5 -27 -3 -3 -8 -9 -7
-18 4 -13 15 -64 34 -81 31 -5 -1 -8 4 -8 11 0 7 -9 18 -20 25 -12 7 -18 17
-15 22 3 5 1 19 -5 31 -9 15 -9 24 -1 32 6 6 11 24 11 39 0 44 55 59 123 33
12 -5 17 -2 17 10 0 15 1 15 16 0 9 -9 19 -13 22 -10 3 3 0 11 -6 17 -7 7 -12
17 -12 23 0 7 3 7 8 -1 4 -6 15 -13 24 -17z m-232 -38 c0 -6 -4 -7 -10 -4 -5
3 -10 11 -10 16 0 6 5 7 10 4 6 -3 10 -11 10 -16z m460 -29 c0 -5 -2 -10 -4
-10 -3 0 -8 5 -11 10 -3 6 -1 10 4 10 6 0 11 -4 11 -10z m-470 -21 c0 -5 -4
-9 -10 -9 -5 0 -10 7 -10 16 0 8 5 12 10 9 6 -3 10 -10 10 -16z m-50 -5 c-11
-13 -10 -16 9 -21 17 -4 19 -8 10 -14 -15 -9 -39 7 -39 26 0 11 11 20 29 24 2
1 -2 -6 -9 -15z m486 -20 c10 -8 14 -13 8 -10 -16 8 -37 -20 -28 -36 6 -10 3
-9 -9 1 -17 14 -23 42 -10 54 10 10 17 9 39 -9z m-416 -34 c0 -5 -2 -10 -4
-10 -3 0 -8 5 -11 10 -3 6 -1 10 4 10 6 0 11 -4 11 -10z m424 -45 c3 -9 0 -15
-9 -15 -16 0 -27 14 -18 24 10 10 21 7 27 -9z m32 -59 c-6 -35 -11 -44 -22
-39 -11 4 -12 8 -4 13 6 4 10 13 9 21 -4 18 11 62 18 55 3 -3 2 -25 -1 -50z
m-526 13 c0 -5 -7 -6 -15 -3 -8 4 -15 13 -15 21 0 13 3 13 15 3 8 -7 15 -16
15 -21z m470 11 c0 -5 -2 -10 -4 -10 -3 0 -8 5 -11 10 -3 6 -1 10 4 10 6 0 11
-4 11 -10z m-270 -30 c0 -5 -2 -10 -4 -10 -3 0 -8 5 -11 10 -3 6 -1 10 4 10 6
0 11 -4 11 -10z m30 -31 c0 -5 -4 -9 -10 -9 -5 0 -10 7 -10 16 0 8 5 12 10 9
6 -3 10 -10 10 -16z m-212 -14 c-3 -3 -9 2 -12 12 -6 14 -5 15 5 6 7 -7 10
-15 7 -18z m272 6 c0 -11 3 -28 7 -38 6 -15 4 -16 -8 -6 -17 13 -24 63 -9 63
6 0 10 -9 10 -19z m-113 -11 c1 -11 -2 -18 -7 -15 -4 3 -6 -3 -3 -14 5 -20
-22 -37 -32 -21 -4 6 -1 10 5 10 6 0 11 10 10 23 -3 32 -1 37 13 37 7 0 13 -9
14 -20z m-56 -27 c-9 -16 -10 -14 -11 12 0 21 3 26 11 18 8 -8 8 -16 0 -30z
m-51 12 c10 -12 10 -15 -4 -15 -9 0 -16 7 -16 15 0 8 2 15 4 15 2 0 9 -7 16
-15z m180 -1 c0 -8 -5 -12 -10 -9 -6 4 -8 11 -5 16 9 14 15 11 15 -7z m108
-25 c-3 -8 -7 -3 -11 10 -4 17 -3 21 5 13 5 -5 8 -16 6 -23z m-333 11 c3 -5 1
-10 -4 -10 -6 0 -11 5 -11 10 0 6 2 10 4 10 3 0 8 -4 11 -10z m455 -15 c-7 -9
-15 -13 -18 -10 -3 2 1 11 8 20 7 9 15 13 18 10 3 -2 -1 -11 -8 -20z m-247
-21 c9 -9 -4 -35 -14 -28 -5 3 -9 12 -9 20 0 14 12 19 23 8z m-43 -26 c0 -6
-6 -5 -15 2 -8 7 -15 14 -15 16 0 2 7 1 15 -2 8 -4 15 -11 15 -16z m75 12 c3
-5 1 -10 -4 -10 -6 0 -11 5 -11 10 0 6 2 10 4 10 3 0 8 -4 11 -10z m105 -11
c0 -6 -4 -7 -10 -4 -5 3 -10 11 -10 16 0 6 5 7 10 4 6 -3 10 -11 10 -16z
m-323 -11 c-3 -8 -6 -5 -6 6 -1 11 2 17 5 13 3 -3 4 -12 1 -19z m459 -4 c-9
-9 -20 -14 -23 -10 -4 3 2 13 13 20 25 18 31 12 10 -10z m-51 6 c3 -5 1 -10
-4 -10 -6 0 -11 5 -11 10 0 6 2 10 4 10 3 0 8 -4 11 -10z m-371 -15 c-6 -16
-24 -21 -24 -7 0 11 11 22 21 22 5 0 6 -7 3 -15z m56 -5 c0 -5 -5 -10 -11 -10
-5 0 -7 5 -4 10 3 6 8 10 11 10 2 0 4 -4 4 -10z m160 3 c0 -5 -4 -14 -9 -21
-7 -11 -9 -11 -14 1 -3 8 -3 18 0 21 9 8 23 7 23 -1z m134 -19 c3 -8 2 -12 -4
-9 -6 3 -10 10 -10 16 0 14 7 11 14 -7z m-404 -18 c0 -3 -4 -8 -10 -11 -5 -3
-10 -1 -10 4 0 6 5 11 10 11 6 0 10 -2 10 -4z m107 -28 c-3 -8 -6 -5 -6 6 -1
11 2 17 5 13 3 -3 4 -12 1 -19z m74 -5 c-8 -15 -10 -15 -11 -2 0 17 10 32 18
25 2 -3 -1 -13 -7 -23z m219 12 c0 -8 -4 -15 -10 -15 -5 0 -10 7 -10 15 0 8 5
15 10 15 6 0 10 -7 10 -15z m114 -1 c4 -9 4 -19 1 -22 -3 -3 -5 0 -5 7 0 8 -7
11 -15 7 -9 -3 -15 0 -15 9 0 20 26 19 34 -1z m-294 -4 c0 -5 -5 -10 -11 -10
-5 0 -7 5 -4 10 3 6 8 10 11 10 2 0 4 -4 4 -10z m45 1 c3 -5 1 -12 -5 -16 -5
-3 -10 1 -10 9 0 18 6 21 15 7z m95 -1 c0 -12 -8 -12 -35 0 -18 8 -17 9 8 9
15 1 27 -3 27 -9z m-220 -14 c0 -8 -4 -18 -10 -21 -5 -3 -10 3 -10 14 0 12 5
21 10 21 6 0 10 -6 10 -14z m-110 -17 c0 -5 -4 -9 -10 -9 -5 0 -10 7 -10 16 0
8 5 12 10 9 6 -3 10 -10 10 -16z m225 -9 c-4 -6 5 -26 19 -44 23 -31 25 -46 4
-46 -5 0 -7 4 -4 9 3 5 -4 21 -15 35 -18 23 -20 56 -4 56 4 0 3 -5 0 -10z
m103 -9 c3 -8 -1 -12 -9 -9 -7 2 -15 10 -17 17 -3 8 1 12 9 9 7 -2 15 -10 17
-17z m152 15 c0 -3 -4 -8 -10 -11 -5 -3 -10 -1 -10 4 0 6 5 11 10 11 6 0 10
-2 10 -4z m-365 -26 c3 -5 1 -10 -4 -10 -6 0 -11 5 -11 10 0 6 2 10 4 10 3 0
8 -4 11 -10z m-10 -30 c3 -5 1 -10 -4 -10 -6 0 -11 5 -11 10 0 6 2 10 4 10 3
0 8 -4 11 -10z m101 -47 c-7 -7 -26 7 -26 19 0 6 6 6 15 -2 9 -7 13 -15 11
-17z m169 -33 c3 -5 1 -10 -4 -10 -6 0 -11 5 -11 10 0 6 2 10 4 10 3 0 8 -4
11 -10z"/>
<path d="M451 725 c0 -29 3 -35 8 -21 7 19 8 18 14 -4 3 -13 9 -21 13 -17 4 4
13 2 20 -4 11 -9 16 -6 23 12 l10 24 1 -25 c1 -23 2 -23 9 -5 10 25 3 47 -12
38 -27 -16 -47 -10 -48 16 -1 18 -3 21 -6 8 -5 -18 -5 -18 -19 0 -12 16 -13
14 -13 -22z"/>
<path d="M564 695 c-8 -20 3 -32 39 -40 24 -6 27 -5 27 19 0 25 -10 33 -23 19
-4 -3 -2 -12 4 -19 8 -9 5 -11 -10 -7 -11 3 -17 11 -15 18 3 7 1 16 -5 20 -6
3 -14 -1 -17 -10z"/>
</g>
</svg>
